#tb 0: 1001/30000
0,          0,          0,        1,    66528, cf35dffc80946e87bb9d3e18aab9d320
0,          1,          1,        1,    66528, a76ac92f05e9b097f8ac5882e1ffe656
0,          2,          2,        1,    66528, faa1e8a11c9df3e9c9a9dafbebea6d04
0,          3,          3,        1,    66528, 905a28289c8ac793b335096ca7f84e1d
0,          4,          4,        1,    66528, cb480fa6977baf98a74bddf213ecba82
0,          5,          5,        1,    66528, 35224d3708e3ba1dafcc58b803d5ea77
0,          6,          6,        1,    66528, d166d764e87854bca47ab7a2bc8b1f9b
0,          7,          7,        1,    66528, 562f1e06ae36abba5f1fb53e3d6cd7e8
0,          8,          8,        1,    66528, 1599cebef060f6464aeef15aacbde446
0,          9,          9,        1,    66528, 3316ebca2864a9dc04db86069efb1dd1
